 http://www.shotpix.com/images/23019218363164581101.jpg

 
http://www.imdb.com/title/tt1988591/

Plot
Get ready for an explosive, action-fueled ride when hardened criminals race for their freedom in vicious new vehicles and face off in the ultimate blood sport in the all-new original feature DEATH RACE 3: INFERNO.
 
In this all-new original feature film based on the hit franchise, the popular Death Race is transported across the globe to the unforgiving and rugged terrain of South Africa where Frankenstein - the greatest Death Race driver of all time - takes on this ultimate challenge to not only save himself, but his pit crew, as well.




Director: 
Roel Reiné

 Writers: 
Tony Giglio (screenplay), Tony Giglio (story)
 
Stars:
 Danny Trejo, Ving Rhames and Dougray Scott

Genres:
 Action , Crime , Thriller 

Country:
USA 

Language:
English 




Format                                   : AVI
Format/Info                              : Audio Video Interleave
Format profile                           : OpenDML
Format settings                          : rec
File size                                : 1.80 GiB
Duration                                 : 1h 45mn
Overall bit rate                         : 2 445 Kbps
Writing application                      : AVI-Mux GUI 1.17.8.3, Feb 16 201019:42:50

Video
ID                                       : 0
Format                                   : MPEG-4 Visual
Format profile                           : Advanced Simple@L5
Format settings, BVOP                    : 2
Format settings, QPel                    : No
Format settings, GMC                     : No warppoints
Format settings, Matrix                  : Default (H.263)
Muxing mode                              : Packed bitstream
Codec ID                                 : XVID
Codec ID/Hint                            : XviD
Duration                                 : 1h 45mn
Bit rate                                 : 2 056 Kbps
Width                                    : 720 pixels
Height                                   : 400 pixels
Display aspect ratio                     : 16:9
Frame rate                               : 23.976 fps
Color space                              : YUV
Chroma subsampling                       : 4:2:0
Bit depth                                : 8 bits
Scan type                                : Progressive
Compression mode                         : Lossy
Bits/(Pixel*Frame)                       : 0.298
Stream size                              : 1.51 GiB (84%)
Writing library                          : XviD 64

Audio
ID                                       : 1
Format                                   : AC-3
Format/Info                              : Audio Coding 3
Mode extension                           : CM (complete main)
Format settings, Endianness              : Big
Codec ID                                 : 2000
Duration                                 : 1h 45mn
Bit rate mode                            : Constant
Bit rate                                 : 384 Kbps
Channel(s)                               : 6 channels
Channel positions                        : Front: L C R, Side: L R, LFE
Sampling rate                            : 48.0 KHz
Bit depth                                : 16 bits
Compression mode                         : Lossy
Stream size                              : 289 MiB (16%)
Alignment                                : Aligned on interleaves
Interleave, duration                     : 64 ms (1.53 video frames)
Interleave, preload duration             : 192 ms
Title                                    : asd



 
http://www.shotpix.com/images/81362401001002546906.png 
http://www.shotpix.com/images/22036859306794664920.png 
http://www.shotpix.com/images/39441590992038992933.png 
http://www.shotpix.com/images/48370211305046103305.png